<svg xmlns="http://www.w3.org/2000/svg" xmlns:xlink="http://www.w3.org/1999/xlink" width="900" zoomAndPan="magnify" viewBox="0 0 675 112.499997" height="150" preserveAspectRatio="xMidYMid meet" version="1.0"><defs><g/><clipPath id="id1"><path d="M 291.550781 27.246094 L 495.726562 27.246094 L 495.726562 86.136719 L 291.550781 86.136719 Z M 291.550781 27.246094 " clip-rule="nonzero"/></clipPath><clipPath id="id2"><path d="M 503.753906 29 L 635 29 L 635 76 L 503.753906 76 Z M 503.753906 29 " clip-rule="nonzero"/></clipPath><clipPath id="id3"><path d="M 503.753906 27 L 632 27 L 632 69 L 503.753906 69 Z M 503.753906 27 " clip-rule="nonzero"/></clipPath><clipPath id="id4"><path d="M 503.753906 27.246094 L 626 27.246094 L 626 86.136719 L 503.753906 86.136719 Z M 503.753906 27.246094 " clip-rule="nonzero"/></clipPath><clipPath id="id5"><path d="M 503.753906 33 L 625 33 L 625 84 L 503.753906 84 Z M 503.753906 33 " clip-rule="nonzero"/></clipPath><clipPath id="id6"><path d="M 503.753906 53 L 635.746094 53 L 635.746094 60 L 503.753906 60 Z M 503.753906 53 " clip-rule="nonzero"/></clipPath></defs><path fill="rgb(96.859741%, 40.388489%, 3.919983%)" d="M 437.332031 54.082031 C 436.242188 52.574219 429.574219 53.539062 427.441406 53.539062 C 413.789062 53.539062 400.128906 53.539062 386.472656 53.539062 C 384.578125 53.539062 379.648438 52.777344 378.707031 54.082031 C 377.851562 55.265625 378.523438 60.371094 378.675781 62.574219 C 377.984375 62.707031 376.820312 64.707031 376.820312 64.707031 L 378.335938 67.746094 C 378.199219 69.707031 378.179688 71.65625 378.707031 72.382812 C 379.609375 73.632812 383.914062 72.925781 385.8125 72.925781 C 392.578125 72.925781 399.34375 72.925781 406.109375 72.925781 C 416.515625 72.925781 426.921875 72.925781 437.332031 72.925781 C 437.332031 71.234375 437.332031 69.542969 437.332031 67.851562 L 438.453125 65.613281 L 437.433594 62.574219 C 437.671875 59.851562 438.175781 55.253906 437.332031 54.082031 Z M 503.324219 54.082031 C 502.976562 53.597656 502.046875 53.371094 500.882812 53.28125 L 473.527344 43.710938 L 446.273438 53.414062 C 445.539062 53.519531 444.960938 53.71875 444.699219 54.082031 C 443.84375 55.265625 444.515625 60.371094 444.671875 62.574219 L 443.566406 64.742188 L 444.332031 67.746094 C 444.191406 69.707031 444.175781 71.65625 444.699219 72.382812 C 445.605469 73.632812 449.910156 72.925781 451.808594 72.925781 C 458.570312 72.925781 465.335938 72.925781 472.101562 72.925781 C 482.507812 72.925781 492.917969 72.925781 503.324219 72.925781 C 503.324219 70.015625 503.324219 67.109375 503.324219 64.199219 C 503.324219 62.40625 504.382812 55.550781 503.324219 54.082031 Z M 298.308594 37.179688 C 298.308594 37.179688 300.453125 40.003906 304.886719 40.003906 C 304.886719 40.003906 313.730469 39.710938 314.25 37.199219 C 315.113281 36.652344 314.929688 35.261719 314.769531 34.6875 C 314.492188 33.691406 312.925781 33.855469 311.632812 33.855469 C 308.101562 33.855469 304.566406 33.855469 301.035156 33.855469 C 300.257812 33.855469 298.910156 33.726562 298.230469 34.015625 C 297.28125 34.425781 297.492188 35.992188 297.652344 36.585938 C 297.71875 36.847656 297.957031 37.039062 298.308594 37.179688 Z M 370.996094 56.773438 C 370.996094 61.570312 371.296875 66.476562 370.996094 71.265625 C 370.835938 73.816406 369.917969 74.746094 367.480469 74.910156 C 360.65625 75.367188 353.652344 74.910156 346.820312 74.910156 C 328.765625 74.910156 310.601562 75.515625 292.558594 74.910156 C 290.359375 74.835938 288.8125 75.164062 288.136719 72.378906 C 287.285156 68.875 288.136719 64.089844 288.136719 60.496094 C 288.136719 57.605469 287.105469 52.460938 288.292969 49.722656 C 289.441406 47.070312 293.808594 47.988281 296.195312 47.988281 C 297.738281 47.988281 299.277344 47.988281 300.820312 47.988281 L 306.28125 45.234375 L 312.113281 47.988281 C 316.195312 47.988281 320.277344 47.988281 324.359375 47.988281 C 327.339844 47.988281 329.300781 48.023438 329.566406 44.417969 C 329.851562 40.503906 329.566406 36.464844 329.566406 32.535156 C 329.566406 28.3125 347.058594 30.195312 349.882812 30.210938 C 353.808594 30.234375 365.289062 28.308594 366.390625 32.96875 C 367.398438 37.234375 365.332031 42.261719 366.390625 46.507812 C 367.128906 49.46875 370.214844 48.402344 370.996094 51.378906 C 371.40625 52.945312 370.996094 55.15625 370.996094 56.773438 " fill-opacity="1" fill-rule="nonzero"/><path fill="rgb(100%, 85.099792%, 23.139954%)" d="M 371.753906 56.191406 C 371.164062 54.460938 371.816406 55.027344 369.601562 54.917969 C 362.414062 54.574219 355.125 54.917969 347.933594 54.917969 C 330.71875 54.917969 313.503906 54.917969 296.292969 54.917969 C 294.097656 54.917969 291.507812 54.527344 289.347656 54.917969 C 287.335938 55.285156 288.292969 54.371094 287.667969 56.191406 C 287.105469 57.832031 287.667969 60.816406 287.667969 62.558594 C 287.667969 63.597656 287.101562 66.867188 287.667969 67.757812 C 288.1875 68.574219 288.476562 68.203125 289.824219 68.296875 C 304.878906 69.355469 320.382812 68.296875 335.472656 68.296875 C 347.566406 68.296875 359.660156 68.296875 371.753906 68.296875 C 371.753906 68.140625 371.761719 67.976562 371.765625 67.8125 L 373.144531 65.191406 L 372.140625 62.574219 C 372.304688 60.242188 372.34375 57.90625 371.753906 56.191406 Z M 500.882812 30.316406 C 500.464844 28.109375 499.492188 27.734375 497.523438 27.617188 C 483.863281 26.785156 469.90625 27.617188 456.21875 27.617188 C 453.039062 27.617188 447.238281 26.238281 446.460938 30.1875 C 445.253906 36.332031 446.460938 43.925781 446.460938 50.1875 C 446.460938 51.132812 446.363281 52.253906 446.273438 53.414062 C 448.164062 53.148438 451.101562 53.539062 452.46875 53.539062 C 466.125 53.539062 479.78125 53.539062 493.4375 53.539062 C 494.882812 53.539062 498.417969 53.097656 500.882812 53.28125 C 500.882812 48.804688 500.882812 44.328125 500.882812 39.851562 C 500.882812 36.851562 501.4375 33.269531 500.882812 30.316406 Z M 298.308594 37.179688 C 299.882812 37.8125 303.746094 37.429688 305.140625 37.429688 C 307.878906 37.429688 310.617188 37.429688 313.355469 37.429688 C 313.738281 37.429688 314.027344 37.34375 314.25 37.199219 C 313.890625 38.492188 312.097656 39.679688 311.714844 40.558594 C 310.894531 42.46875 312.554688 45.839844 312.113281 47.988281 C 308.347656 47.988281 304.585938 47.988281 300.820312 47.988281 C 300.03125 45.957031 300.863281 42.558594 300.863281 40.398438 C 300.113281 39.839844 298.667969 38.464844 298.308594 37.179688 " fill-opacity="1" fill-rule="nonzero"/><g clip-path="url(#id1)"><path fill="rgb(8.628845%, 59.21936%, 81.959534%)" d="M 453.628906 78.476562 C 453.628906 88.066406 468.445312 88.121094 468.445312 78.476562 C 468.445312 68.832031 453.628906 68.875 453.628906 78.476562 Z M 480.480469 78.476562 C 480.480469 88.066406 495.296875 88.121094 495.296875 78.476562 C 495.296875 68.832031 480.480469 68.875 480.480469 78.476562 Z M 387.636719 78.476562 C 387.636719 88.066406 402.449219 88.121094 402.449219 78.476562 C 402.449219 68.832031 387.636719 68.875 387.636719 78.476562 Z M 414.484375 78.476562 C 414.484375 88.066406 429.300781 88.121094 429.300781 78.476562 C 429.300781 68.832031 414.484375 68.875 414.484375 78.476562 Z M 431.53125 27.617188 C 417.871094 26.785156 403.914062 27.617188 390.226562 27.617188 C 387.046875 27.617188 381.242188 26.238281 380.464844 30.1875 C 379.261719 36.332031 380.464844 43.925781 380.464844 50.1875 C 380.464844 51.132812 380.367188 52.253906 380.277344 53.414062 C 382.167969 53.148438 385.105469 53.539062 386.472656 53.539062 C 400.128906 53.539062 413.789062 53.539062 427.441406 53.539062 C 428.890625 53.539062 432.425781 53.097656 434.886719 53.28125 C 434.886719 48.804688 434.886719 44.328125 434.886719 39.851562 C 434.886719 36.851562 435.445312 33.269531 434.886719 30.316406 C 434.472656 28.109375 433.496094 27.734375 431.53125 27.617188 Z M 437.433594 62.574219 C 437.375 63.265625 437.332031 63.835938 437.332031 64.199219 C 437.332031 65.417969 437.332031 66.632812 437.332031 67.851562 C 437.917969 67.792969 438.417969 67.746094 438.726562 67.746094 C 440.59375 67.746094 442.460938 67.746094 444.332031 67.746094 C 444.460938 65.914062 444.699219 64.070312 444.699219 63.230469 C 444.699219 63.0625 444.6875 62.839844 444.671875 62.574219 C 442.257812 62.574219 439.84375 62.574219 437.433594 62.574219 Z M 372.140625 62.574219 C 372.007812 64.429688 371.804688 66.273438 371.765625 67.8125 C 372.167969 67.773438 372.503906 67.746094 372.730469 67.746094 C 374.601562 67.746094 376.46875 67.746094 378.335938 67.746094 C 378.46875 65.914062 378.707031 64.070312 378.707031 63.230469 C 378.707031 63.0625 378.695312 62.839844 378.675781 62.574219 C 376.496094 62.574219 374.316406 62.574219 372.140625 62.574219 Z M 291.984375 78.753906 C 291.984375 88.621094 307.140625 88.578125 307.140625 78.753906 C 307.140625 68.929688 291.984375 68.890625 291.984375 78.753906 Z M 311.957031 78.753906 C 311.957031 88.621094 327.117188 88.578125 327.117188 78.753906 C 327.117188 68.929688 311.957031 68.890625 311.957031 78.753906 Z M 359.027344 74.328125 C 359.027344 89.988281 335.089844 89.800781 335.089844 74.328125 C 335.089844 58.875 359.027344 58.652344 359.027344 74.328125 " fill-opacity="1" fill-rule="nonzero"/></g><path fill="rgb(100%, 100%, 100%)" d="M 426.605469 34.402344 C 425.175781 33.339844 419.179688 34.402344 417.363281 34.402344 C 416.359375 34.402344 411.015625 33.664062 410.335938 34.402344 C 409.335938 35.492188 410.042969 47.796875 410.757812 48.25 C 412.347656 49.253906 417.832031 48.25 419.691406 48.25 C 422.191406 48.25 424.6875 48.25 427.183594 48.25 C 427.183594 45.261719 428.511719 35.8125 426.605469 34.402344 Z M 471.15625 34.542969 C 469.722656 33.484375 463.730469 34.542969 461.910156 34.542969 C 460.910156 34.542969 455.5625 33.808594 454.886719 34.542969 C 453.886719 35.636719 454.59375 47.9375 455.308594 48.390625 C 456.894531 49.398438 462.382812 48.390625 464.242188 48.390625 C 466.738281 48.390625 469.234375 48.390625 471.730469 48.390625 C 471.730469 45.402344 473.0625 35.957031 471.15625 34.542969 Z M 492.601562 34.402344 C 491.167969 33.339844 485.175781 34.402344 483.355469 34.402344 C 482.355469 34.402344 477.007812 33.664062 476.332031 34.402344 C 475.332031 35.492188 476.039062 47.796875 476.753906 48.25 C 478.339844 49.253906 483.828125 48.25 485.6875 48.25 C 488.183594 48.25 490.679688 48.25 493.175781 48.25 C 493.175781 45.261719 494.507812 35.8125 492.601562 34.402344 Z M 405.160156 34.542969 C 403.730469 33.484375 397.734375 34.542969 395.917969 34.542969 C 394.917969 34.542969 389.566406 33.808594 388.894531 34.542969 C 387.890625 35.636719 388.597656 47.9375 389.3125 48.390625 C 390.902344 49.398438 396.386719 48.390625 398.25 48.390625 C 400.746094 48.390625 403.242188 48.390625 405.738281 48.390625 C 405.738281 45.402344 407.066406 35.957031 405.160156 34.542969 Z M 349.886719 48.699219 C 349.886719 46 349.886719 43.304688 349.886719 40.609375 C 349.886719 39.671875 350.472656 35.027344 349.8125 34.375 C 349.070312 33.648438 334.730469 33.640625 334.054688 34.375 C 333.277344 35.222656 333.417969 47.933594 334.128906 48.699219 C 334.914062 49.546875 341.253906 48.699219 342.445312 48.699219 C 344.925781 48.699219 347.40625 48.699219 349.886719 48.699219 Z M 358.828125 34.523438 C 357.875 34.507812 353.421875 33.890625 352.84375 34.523438 C 352.289062 35.136719 352.84375 38.550781 352.84375 39.386719 C 352.84375 41.742188 352.316406 44.824219 352.84375 47.113281 C 353.351562 49.289062 352.285156 48.523438 354.714844 48.847656 C 356.777344 49.125 359.042969 48.847656 361.128906 48.847656 C 361.128906 44.976562 362.152344 39.660156 361.128906 35.96875 C 360.617188 34.113281 361.386719 34.574219 358.828125 34.523438 Z M 314.769531 78.753906 C 314.769531 84.929688 324.304688 84.945312 324.304688 78.753906 C 324.304688 72.527344 314.769531 72.589844 314.769531 78.753906 Z M 340.960938 74.328125 C 340.960938 82.261719 353.15625 82.261719 353.15625 74.328125 C 353.15625 66.398438 340.960938 66.398438 340.960938 74.328125 Z M 294.792969 78.753906 C 294.792969 84.929688 304.332031 84.945312 304.332031 78.753906 C 304.332031 72.527344 294.792969 72.589844 294.792969 78.753906 Z M 456.378906 78.476562 C 456.378906 84.511719 465.699219 84.527344 465.699219 78.476562 C 465.699219 72.386719 456.378906 72.445312 456.378906 78.476562 Z M 483.226562 78.476562 C 483.226562 84.511719 492.546875 84.527344 492.546875 78.476562 C 492.546875 72.386719 483.226562 72.445312 483.226562 78.476562 Z M 390.382812 78.476562 C 390.382812 84.511719 399.703125 84.527344 399.703125 78.476562 C 399.703125 72.386719 390.382812 72.445312 390.382812 78.476562 Z M 426.554688 78.476562 C 426.554688 84.527344 417.234375 84.511719 417.234375 78.476562 C 417.234375 72.445312 426.554688 72.386719 426.554688 78.476562 " fill-opacity="1" fill-rule="nonzero"/><path fill="rgb(100%, 100%, 100%)" d="M 371.175781 53.800781 L 287.417969 53.800781 C 286.804688 53.800781 286.304688 54.300781 286.304688 54.917969 C 286.304688 55.539062 286.804688 56.039062 287.417969 56.039062 L 371.175781 56.039062 C 371.789062 56.039062 372.289062 55.539062 372.289062 54.917969 C 372.289062 54.300781 371.789062 53.800781 371.175781 53.800781 Z M 503.796875 56.84375 L 444.25 56.84375 C 443.636719 56.84375 443.136719 57.34375 443.136719 57.964844 C 443.136719 58.582031 443.636719 59.085938 444.25 59.085938 L 503.796875 59.085938 C 504.410156 59.085938 504.90625 58.582031 504.90625 57.964844 C 504.90625 57.34375 504.410156 56.84375 503.796875 56.84375 Z M 438.71875 57.964844 C 438.71875 58.582031 438.222656 59.085938 437.609375 59.085938 L 378.316406 59.085938 C 377.703125 59.085938 377.203125 58.582031 377.203125 57.964844 C 377.203125 57.34375 377.703125 56.84375 378.316406 56.84375 L 437.609375 56.84375 C 438.222656 56.84375 438.71875 57.34375 438.71875 57.964844 " fill-opacity="1" fill-rule="nonzero"/><g clip-path="url(#id2)"><path fill="rgb(96.859741%, 40.388489%, 3.919983%)" d="M 567.789062 54.082031 C 566.699219 52.574219 560.03125 53.539062 557.902344 53.539062 C 544.246094 53.539062 530.589844 53.539062 516.933594 53.539062 C 515.035156 53.539062 510.105469 52.777344 509.164062 54.082031 C 508.308594 55.265625 508.980469 60.371094 509.132812 62.574219 C 508.445312 62.707031 507.277344 64.707031 507.277344 64.707031 L 508.796875 67.746094 C 508.65625 69.707031 508.640625 71.65625 509.164062 72.382812 C 510.070312 73.632812 514.375 72.925781 516.269531 72.925781 C 523.035156 72.925781 529.800781 72.925781 536.566406 72.925781 C 546.972656 72.925781 557.382812 72.925781 567.789062 72.925781 C 567.789062 71.234375 567.789062 69.542969 567.789062 67.851562 L 568.910156 65.613281 L 567.894531 62.574219 C 568.132812 59.851562 568.632812 55.253906 567.789062 54.082031 Z M 633.785156 54.082031 C 633.433594 53.597656 632.507812 53.371094 631.339844 53.28125 L 603.984375 43.710938 L 576.730469 53.414062 C 576 53.519531 575.421875 53.71875 575.15625 54.082031 C 574.304688 55.265625 574.976562 60.371094 575.128906 62.574219 L 574.027344 64.742188 L 574.789062 67.746094 C 574.652344 69.707031 574.632812 71.65625 575.15625 72.382812 C 576.0625 73.632812 580.367188 72.925781 582.265625 72.925781 C 589.03125 72.925781 595.796875 72.925781 602.5625 72.925781 C 612.96875 72.925781 623.375 72.925781 633.785156 72.925781 C 633.785156 70.015625 633.785156 67.109375 633.785156 64.199219 C 633.785156 62.40625 634.84375 55.550781 633.785156 54.082031 Z M 428.769531 37.179688 C 428.769531 37.179688 430.914062 40.003906 435.34375 40.003906 C 435.34375 40.003906 444.1875 39.710938 444.707031 37.199219 C 445.570312 36.652344 445.386719 35.261719 445.230469 34.6875 C 444.953125 33.691406 443.382812 33.855469 442.09375 33.855469 C 438.558594 33.855469 435.027344 33.855469 431.496094 33.855469 C 430.714844 33.855469 429.367188 33.726562 428.6875 34.015625 C 427.738281 34.425781 427.953125 35.992188 428.109375 36.585938 C 428.179688 36.847656 428.417969 37.039062 428.769531 37.179688 Z M 501.453125 56.773438 C 501.453125 61.570312 501.757812 66.476562 501.453125 71.265625 C 501.292969 73.816406 500.375 74.746094 497.9375 74.910156 C 491.117188 75.367188 484.109375 74.910156 477.277344 74.910156 C 459.222656 74.910156 441.0625 75.515625 423.019531 74.910156 C 420.816406 74.835938 419.273438 75.164062 418.597656 72.378906 C 417.742188 68.875 418.597656 64.089844 418.597656 60.496094 C 418.597656 57.605469 417.566406 52.460938 418.753906 49.722656 C 419.902344 47.070312 424.269531 47.988281 426.65625 47.988281 C 428.195312 47.988281 429.738281 47.988281 431.28125 47.988281 L 436.738281 45.234375 L 442.574219 47.988281 C 446.652344 47.988281 450.734375 47.988281 454.816406 47.988281 C 457.796875 47.988281 459.761719 48.023438 460.027344 44.417969 C 460.3125 40.503906 460.027344 36.464844 460.027344 32.535156 C 460.027344 28.3125 477.515625 30.195312 480.339844 30.210938 C 484.265625 30.234375 495.75 28.308594 496.851562 32.96875 C 497.855469 37.234375 495.789062 42.261719 496.851562 46.507812 C 497.585938 49.46875 500.671875 48.402344 501.453125 51.378906 C 501.867188 52.945312 501.453125 55.15625 501.453125 56.773438 " fill-opacity="1" fill-rule="nonzero"/></g><g clip-path="url(#id3)"><path fill="rgb(100%, 85.099792%, 23.139954%)" d="M 502.214844 56.191406 C 501.621094 54.460938 502.273438 55.027344 500.058594 54.917969 C 492.875 54.574219 485.585938 54.917969 478.390625 54.917969 C 461.179688 54.917969 443.964844 54.917969 426.75 54.917969 C 424.558594 54.917969 421.96875 54.527344 419.804688 54.917969 C 417.796875 55.285156 418.753906 54.371094 418.128906 56.191406 C 417.5625 57.832031 418.128906 60.816406 418.128906 62.558594 C 418.128906 63.597656 417.5625 66.867188 418.128906 67.757812 C 418.648438 68.574219 418.9375 68.203125 420.28125 68.296875 C 435.335938 69.355469 450.84375 68.296875 465.929688 68.296875 C 478.027344 68.296875 490.121094 68.296875 502.214844 68.296875 C 502.214844 68.140625 502.21875 67.976562 502.222656 67.8125 L 503.605469 65.191406 L 502.597656 62.574219 C 502.761719 60.242188 502.800781 57.90625 502.214844 56.191406 Z M 631.339844 30.316406 C 630.925781 28.109375 629.949219 27.734375 627.980469 27.617188 C 614.320312 26.785156 600.363281 27.617188 586.679688 27.617188 C 583.496094 27.617188 577.695312 26.238281 576.921875 30.1875 C 575.714844 36.332031 576.921875 43.925781 576.921875 50.1875 C 576.921875 51.132812 576.820312 52.253906 576.730469 53.414062 C 578.621094 53.148438 581.558594 53.539062 582.929688 53.539062 C 596.582031 53.539062 610.238281 53.539062 623.898438 53.539062 C 625.34375 53.539062 628.878906 53.097656 631.339844 53.28125 C 631.339844 48.804688 631.339844 44.328125 631.339844 39.851562 C 631.339844 36.851562 631.898438 33.269531 631.339844 30.316406 Z M 428.769531 37.179688 C 430.339844 37.8125 434.203125 37.429688 435.601562 37.429688 C 438.339844 37.429688 441.074219 37.429688 443.816406 37.429688 C 444.195312 37.429688 444.484375 37.34375 444.707031 37.199219 C 444.351562 38.492188 442.554688 39.679688 442.175781 40.558594 C 441.351562 42.46875 443.011719 45.839844 442.574219 47.988281 C 438.808594 47.988281 435.042969 47.988281 431.28125 47.988281 C 430.492188 45.957031 431.320312 42.558594 431.320312 40.398438 C 430.570312 39.839844 429.125 38.464844 428.769531 37.179688 " fill-opacity="1" fill-rule="nonzero"/></g><g clip-path="url(#id4)"><path fill="rgb(8.628845%, 59.21936%, 81.959534%)" d="M 584.089844 78.476562 C 584.089844 88.066406 598.90625 88.121094 598.90625 78.476562 C 598.90625 68.832031 584.089844 68.875 584.089844 78.476562 Z M 610.9375 78.476562 C 610.9375 88.066406 625.753906 88.121094 625.753906 78.476562 C 625.753906 68.832031 610.9375 68.875 610.9375 78.476562 Z M 518.09375 78.476562 C 518.09375 88.066406 532.910156 88.121094 532.910156 78.476562 C 532.910156 68.832031 518.09375 68.875 518.09375 78.476562 Z M 544.945312 78.476562 C 544.945312 88.066406 559.761719 88.121094 559.761719 78.476562 C 559.761719 68.832031 544.945312 68.875 544.945312 78.476562 Z M 561.988281 27.617188 C 548.328125 26.785156 534.371094 27.617188 520.683594 27.617188 C 517.503906 27.617188 511.699219 26.238281 510.925781 30.1875 C 509.71875 36.332031 510.925781 43.925781 510.925781 50.1875 C 510.925781 51.132812 510.824219 52.253906 510.738281 53.414062 C 512.628906 53.148438 515.566406 53.539062 516.933594 53.539062 C 530.589844 53.539062 544.246094 53.539062 557.902344 53.539062 C 559.347656 53.539062 562.882812 53.097656 565.347656 53.28125 C 565.347656 48.804688 565.347656 44.328125 565.347656 39.851562 C 565.347656 36.851562 565.902344 33.269531 565.347656 30.316406 C 564.929688 28.109375 563.957031 27.734375 561.988281 27.617188 Z M 567.894531 62.574219 C 567.832031 63.265625 567.789062 63.835938 567.789062 64.199219 C 567.789062 65.417969 567.789062 66.632812 567.789062 67.851562 C 568.378906 67.792969 568.878906 67.746094 569.183594 67.746094 C 571.050781 67.746094 572.921875 67.746094 574.789062 67.746094 C 574.921875 65.914062 575.15625 64.070312 575.15625 63.230469 C 575.15625 63.0625 575.148438 62.839844 575.128906 62.574219 C 572.71875 62.574219 570.304688 62.574219 567.894531 62.574219 Z M 502.597656 62.574219 C 502.46875 64.429688 502.261719 66.273438 502.222656 67.8125 C 502.625 67.773438 502.960938 67.746094 503.191406 67.746094 C 505.058594 67.746094 506.925781 67.746094 508.796875 67.746094 C 508.925781 65.914062 509.164062 64.070312 509.164062 63.230469 C 509.164062 63.0625 509.152344 62.839844 509.132812 62.574219 C 506.957031 62.574219 504.777344 62.574219 502.597656 62.574219 Z M 422.441406 78.753906 C 422.441406 88.621094 437.601562 88.578125 437.601562 78.753906 C 437.601562 68.929688 422.441406 68.890625 422.441406 78.753906 Z M 442.417969 78.753906 C 442.417969 88.621094 457.574219 88.578125 457.574219 78.753906 C 457.574219 68.929688 442.417969 68.890625 442.417969 78.753906 Z M 489.484375 74.328125 C 489.484375 89.988281 465.546875 89.800781 465.546875 74.328125 C 465.546875 58.875 489.484375 58.652344 489.484375 74.328125 " fill-opacity="1" fill-rule="nonzero"/></g><g clip-path="url(#id5)"><path fill="rgb(100%, 100%, 100%)" d="M 557.0625 34.402344 C 555.632812 33.339844 549.640625 34.402344 547.824219 34.402344 C 546.820312 34.402344 541.472656 33.664062 540.796875 34.402344 C 539.796875 35.492188 540.503906 47.796875 541.214844 48.25 C 542.804688 49.253906 548.292969 48.25 550.152344 48.25 C 552.648438 48.25 555.144531 48.25 557.640625 48.25 C 557.640625 45.261719 558.972656 35.8125 557.0625 34.402344 Z M 601.613281 34.542969 C 600.183594 33.484375 594.1875 34.542969 592.367188 34.542969 C 591.367188 34.542969 586.019531 33.808594 585.347656 34.542969 C 584.34375 35.636719 585.050781 47.9375 585.765625 48.390625 C 587.355469 49.398438 592.839844 48.390625 594.699219 48.390625 C 597.195312 48.390625 599.695312 48.390625 602.191406 48.390625 C 602.191406 45.402344 603.519531 35.957031 601.613281 34.542969 Z M 623.058594 34.402344 C 621.628906 33.339844 615.632812 34.402344 613.816406 34.402344 C 612.816406 34.402344 607.464844 33.664062 606.792969 34.402344 C 605.789062 35.492188 606.496094 47.796875 607.210938 48.25 C 608.800781 49.253906 614.285156 48.25 616.148438 48.25 C 618.644531 48.25 621.140625 48.25 623.636719 48.25 C 623.636719 45.261719 624.964844 35.8125 623.058594 34.402344 Z M 535.617188 34.542969 C 534.1875 33.484375 528.191406 34.542969 526.375 34.542969 C 525.375 34.542969 520.027344 33.808594 519.351562 34.542969 C 518.351562 35.636719 519.058594 47.9375 519.773438 48.390625 C 521.359375 49.398438 526.84375 48.390625 528.707031 48.390625 C 531.203125 48.390625 533.699219 48.390625 536.195312 48.390625 C 536.195312 45.402344 537.527344 35.957031 535.617188 34.542969 Z M 480.34375 48.699219 C 480.34375 46 480.34375 43.304688 480.34375 40.609375 C 480.34375 39.671875 480.929688 35.027344 480.269531 34.375 C 479.53125 33.648438 465.1875 33.640625 464.515625 34.375 C 463.734375 35.222656 463.875 47.933594 464.585938 48.699219 C 465.371094 49.546875 471.710938 48.699219 472.902344 48.699219 C 475.382812 48.699219 477.863281 48.699219 480.34375 48.699219 Z M 489.289062 34.523438 C 488.332031 34.507812 483.878906 33.890625 483.304688 34.523438 C 482.75 35.136719 483.304688 38.550781 483.304688 39.386719 C 483.304688 41.742188 482.773438 44.824219 483.304688 47.113281 C 483.808594 49.289062 482.742188 48.523438 485.175781 48.847656 C 487.234375 49.125 489.5 48.847656 491.589844 48.847656 C 491.589844 44.976562 492.609375 39.660156 491.589844 35.96875 C 491.078125 34.113281 491.84375 34.574219 489.289062 34.523438 Z M 445.230469 78.753906 C 445.230469 84.929688 454.765625 84.945312 454.765625 78.753906 C 454.765625 72.527344 445.230469 72.589844 445.230469 78.753906 Z M 471.417969 74.328125 C 471.417969 82.261719 483.617188 82.261719 483.617188 74.328125 C 483.617188 66.398438 471.417969 66.398438 471.417969 74.328125 Z M 425.253906 78.753906 C 425.253906 84.929688 434.789062 84.945312 434.789062 78.753906 C 434.789062 72.527344 425.253906 72.589844 425.253906 78.753906 Z M 586.835938 78.476562 C 586.835938 84.511719 596.15625 84.527344 596.15625 78.476562 C 596.15625 72.386719 586.835938 72.445312 586.835938 78.476562 Z M 613.6875 78.476562 C 613.6875 84.511719 623.003906 84.527344 623.003906 78.476562 C 623.003906 72.386719 613.6875 72.445312 613.6875 78.476562 Z M 520.84375 78.476562 C 520.84375 84.511719 530.160156 84.527344 530.160156 78.476562 C 530.160156 72.386719 520.84375 72.445312 520.84375 78.476562 Z M 557.011719 78.476562 C 557.011719 84.527344 547.691406 84.511719 547.691406 78.476562 C 547.691406 72.445312 557.011719 72.386719 557.011719 78.476562 " fill-opacity="1" fill-rule="nonzero"/></g><g clip-path="url(#id6)"><path fill="rgb(100%, 100%, 100%)" d="M 501.636719 53.800781 L 417.875 53.800781 C 417.261719 53.800781 416.765625 54.300781 416.765625 54.917969 C 416.765625 55.539062 417.261719 56.039062 417.875 56.039062 L 501.636719 56.039062 C 502.25 56.039062 502.746094 55.539062 502.746094 54.917969 C 502.746094 54.300781 502.25 53.800781 501.636719 53.800781 Z M 634.253906 56.84375 L 574.707031 56.84375 C 574.09375 56.84375 573.59375 57.34375 573.59375 57.964844 C 573.59375 58.582031 574.09375 59.085938 574.707031 59.085938 L 634.253906 59.085938 C 634.867188 59.085938 635.363281 58.582031 635.363281 57.964844 C 635.363281 57.34375 634.867188 56.84375 634.253906 56.84375 Z M 569.179688 57.964844 C 569.179688 58.582031 568.683594 59.085938 568.066406 59.085938 L 508.773438 59.085938 C 508.160156 59.085938 507.660156 58.582031 507.660156 57.964844 C 507.660156 57.34375 508.160156 56.84375 508.773438 56.84375 L 568.066406 56.84375 C 568.683594 56.84375 569.179688 57.34375 569.179688 57.964844 " fill-opacity="1" fill-rule="nonzero"/></g><g fill="rgb(96.859741%, 40.388489%, 3.919983%)" fill-opacity="0.4"><g transform="translate(56.069448, 76.124488)"><g><path d="M 12.953125 -35.734375 L 13 -35.9375 L 13.421875 -36.359375 C 13.773438 -37.191406 14.160156 -37.6875 14.578125 -37.84375 C 14.796875 -37.90625 15.078125 -37.984375 15.421875 -38.078125 C 15.773438 -38.171875 16.238281 -38.410156 16.8125 -38.796875 C 17.039062 -39.242188 17.503906 -39.441406 18.203125 -39.390625 C 18.898438 -39.347656 19.59375 -39.125 20.28125 -38.71875 C 20.96875 -38.320312 21.523438 -37.773438 21.953125 -37.078125 C 22.378906 -36.378906 22.484375 -35.65625 22.265625 -34.90625 C 22.046875 -34.15625 21.863281 -33.597656 21.71875 -33.234375 C 21.570312 -32.867188 21.425781 -32.523438 21.28125 -32.203125 C 21.144531 -31.890625 20.972656 -31.53125 20.765625 -31.125 C 20.554688 -30.726562 20.289062 -30.195312 19.96875 -29.53125 L 18.390625 -26.234375 C 18.234375 -25.816406 18.097656 -25.578125 17.984375 -25.515625 C 17.878906 -25.453125 17.773438 -25.34375 17.671875 -25.1875 C 17.960938 -25.25 18.203125 -25.296875 18.390625 -25.328125 C 18.585938 -25.359375 18.78125 -25.390625 18.96875 -25.421875 C 19.414062 -25.484375 19.925781 -25.546875 20.5 -25.609375 C 20.851562 -25.546875 21.15625 -25.515625 21.40625 -25.515625 L 22.078125 -25.515625 C 22.453125 -25.515625 22.910156 -25.410156 23.453125 -25.203125 C 23.992188 -24.992188 24.34375 -24.632812 24.5 -24.125 C 24.664062 -23.613281 24.6875 -23.09375 24.5625 -22.5625 C 24.4375 -22.039062 24.179688 -21.554688 23.796875 -21.109375 C 23.410156 -20.671875 22.914062 -20.4375 22.3125 -20.40625 C 19.539062 -19.632812 17.566406 -19.21875 16.390625 -19.15625 L 16.109375 -18.828125 L 16.109375 -18.78125 C 15.785156 -18.007812 15.441406 -17.039062 15.078125 -15.875 C 14.710938 -14.71875 14.3125 -13.460938 13.875 -12.109375 C 13.445312 -10.753906 13.007812 -9.351562 12.5625 -7.90625 C 12.113281 -6.457031 11.65625 -5.066406 11.1875 -3.734375 C 9.65625 0.765625 8.539062 3.203125 7.84375 3.578125 C 7.582031 3.710938 7.316406 3.800781 7.046875 3.84375 C 6.773438 3.894531 6.625 3.9375 6.59375 3.96875 C 5.476562 3.90625 4.550781 3.679688 3.8125 3.296875 C 3.082031 2.910156 2.585938 2.539062 2.328125 2.1875 C 2.078125 1.84375 2.019531 1.445312 2.15625 1 C 2.757812 -4.539062 3.96875 -10.609375 5.78125 -17.203125 C 5.144531 -17.203125 4.695312 -17.140625 4.4375 -17.015625 C 3.96875 -16.753906 3.394531 -16.609375 2.71875 -16.578125 L 2.671875 -16.578125 C 2.160156 -16.609375 1.695312 -16.847656 1.28125 -17.296875 C 0.875 -17.742188 0.617188 -18.253906 0.515625 -18.828125 C 0.421875 -19.398438 0.519531 -19.988281 0.8125 -20.59375 C 1.101562 -21.195312 1.675781 -21.675781 2.53125 -22.03125 C 3.550781 -22.3125 4.300781 -22.550781 4.78125 -22.75 C 5.695312 -23.125 6.46875 -23.390625 7.09375 -23.546875 C 7.71875 -23.710938 8.066406 -23.816406 8.140625 -23.859375 C 8.222656 -23.910156 8.28125 -23.953125 8.3125 -23.984375 C 8.40625 -24.046875 8.644531 -24.078125 9.03125 -24.078125 C 9.21875 -25.003906 9.40625 -25.941406 9.59375 -26.890625 C 9.789062 -27.847656 10.035156 -28.820312 10.328125 -29.8125 C 10.960938 -32.101562 11.835938 -34.078125 12.953125 -35.734375 Z M 12.953125 -35.734375 "/></g></g></g><g fill="rgb(96.859741%, 40.388489%, 3.919983%)" fill-opacity="0.4"><g transform="translate(76.904804, 76.124488)"><g><path d="M 6.6875 -20.40625 C 7.351562 -20.882812 8.179688 -20.992188 9.171875 -20.734375 C 9.359375 -20.703125 9.550781 -20.6875 9.75 -20.6875 C 10.445312 -22.125 11.65625 -22.875 13.375 -22.9375 C 13.820312 -22.96875 14.441406 -23.046875 15.234375 -23.171875 C 16.035156 -23.296875 17 -23.265625 18.125 -23.078125 C 19.257812 -22.890625 20.257812 -22.554688 21.125 -22.078125 C 23 -21.054688 24.128906 -19.585938 24.515625 -17.671875 C 25.273438 -14.867188 25.160156 -11.8125 24.171875 -8.5 C 23.117188 -4.84375 21.335938 -1.914062 18.828125 0.28125 C 17.679688 1.300781 16.46875 1.945312 15.1875 2.21875 C 13.914062 2.488281 12.769531 2.640625 11.75 2.671875 C 10.726562 2.703125 9.796875 2.707031 8.953125 2.6875 C 8.109375 2.675781 7.289062 2.59375 6.5 2.4375 C 4.78125 2.082031 3.363281 1.269531 2.25 0 C 0.9375 -1.4375 0.378906 -3.664062 0.578125 -6.6875 C 0.703125 -9.363281 1.375 -12.0625 2.59375 -14.78125 C 3.820312 -17.507812 5.1875 -19.382812 6.6875 -20.40625 Z M 15.09375 -10.796875 C 14.300781 -10.546875 13.554688 -10.4375 12.859375 -10.46875 C 12.503906 -10.113281 12.191406 -9.738281 11.921875 -9.34375 C 11.648438 -8.945312 11.289062 -8.578125 10.84375 -8.234375 C 10.394531 -7.898438 10.171875 -7.769531 10.171875 -7.84375 C 9.628906 -7.070312 9.179688 -6.28125 8.828125 -5.46875 C 8.484375 -4.65625 8.488281 -3.835938 8.84375 -3.015625 C 10.113281 -2.878906 11.050781 -2.90625 11.65625 -3.09375 C 12.257812 -3.289062 12.820312 -3.660156 13.34375 -4.203125 C 13.875 -4.742188 14.285156 -5.378906 14.578125 -6.109375 C 15.148438 -7.484375 15.320312 -9.046875 15.09375 -10.796875 Z M 15.09375 -10.796875 "/></g></g></g><g fill="rgb(96.859741%, 40.388489%, 3.919983%)" fill-opacity="0.4"><g transform="translate(101.945473, 76.124488)"><g><path d="M 1.734375 -14.609375 C 1.753906 -15.921875 1.648438 -16.988281 1.421875 -17.8125 C 1.203125 -18.644531 1.210938 -19.335938 1.453125 -19.890625 C 1.691406 -20.453125 2.070312 -20.84375 2.59375 -21.0625 C 3.125 -21.289062 3.75 -21.363281 4.46875 -21.28125 C 5.1875 -21.207031 5.894531 -20.992188 6.59375 -20.640625 C 8.28125 -19.878906 9.457031 -18.796875 10.125 -17.390625 C 10.289062 -16.691406 10.238281 -15.820312 9.96875 -14.78125 C 9.695312 -13.75 9.382812 -12.679688 9.03125 -11.578125 C 8.675781 -10.484375 8.335938 -9.414062 8.015625 -8.375 C 7.703125 -7.34375 7.578125 -6.476562 7.640625 -5.78125 C 8.472656 -6.289062 9.195312 -7.054688 9.8125 -8.078125 C 10.4375 -9.097656 11.007812 -10.1875 11.53125 -11.34375 C 12.0625 -12.507812 12.554688 -13.664062 13.015625 -14.8125 C 13.484375 -15.957031 13.929688 -16.863281 14.359375 -17.53125 C 14.785156 -18.207031 15.125 -18.742188 15.375 -19.140625 C 15.632812 -19.535156 15.894531 -19.894531 16.15625 -20.21875 C 16.5625 -20.757812 17.101562 -21.28125 17.78125 -21.78125 C 17.96875 -21.945312 18.546875 -21.925781 19.515625 -21.71875 C 20.484375 -21.507812 21.195312 -21.363281 21.65625 -21.28125 C 22.125 -21.207031 22.4375 -21.234375 22.59375 -21.359375 L 23.265625 -21.84375 C 24.160156 -22.28125 25.210938 -22.257812 26.421875 -21.78125 C 27.597656 -21.28125 28.21875 -20.503906 28.28125 -19.453125 C 28.25 -19.421875 28.234375 -19.351562 28.234375 -19.25 L 28.375 -19.203125 L 28.046875 -18.921875 C 27.828125 -18.503906 27.660156 -18.222656 27.546875 -18.078125 C 27.429688 -17.941406 27.203125 -17.726562 26.859375 -17.4375 C 24.691406 -15.113281 22.207031 -10.796875 19.40625 -4.484375 C 18.695312 -2.929688 18.054688 -1.53125 17.484375 -0.28125 C 18.347656 0.257812 19 0.957031 19.4375 1.8125 C 19.882812 2.675781 19.890625 3.617188 19.453125 4.640625 C 16.804688 6.734375 15.320312 8.707031 15 10.5625 C 14.84375 11.707031 14.644531 12.519531 14.40625 13 C 14.164062 13.476562 13.789062 13.9375 13.28125 14.375 C 11.5625 15.65625 9.539062 15.335938 7.21875 13.421875 C 5.5625 11.765625 5.476562 9.695312 6.96875 7.21875 C 7.351562 6.550781 7.722656 5.847656 8.078125 5.109375 C 8.585938 4.023438 9.398438 2.414062 10.515625 0.28125 C 7.773438 1.875 5.257812 1.84375 2.96875 0.1875 C 1.34375 -1.050781 0.769531 -3.867188 1.25 -8.265625 C 1.5625 -11.191406 1.722656 -13.304688 1.734375 -14.609375 Z M 1.734375 -14.609375 "/></g></g></g><g fill="rgb(96.859741%, 40.388489%, 3.919983%)" fill-opacity="0.4"><g transform="translate(129.184361, 76.124488)"><g/></g></g><g fill="rgb(96.859741%, 40.388489%, 3.919983%)" fill-opacity="0.4"><g transform="translate(144.094073, 76.124488)"><g><path d="M 12.953125 -35.734375 L 13 -35.9375 L 13.421875 -36.359375 C 13.773438 -37.191406 14.160156 -37.6875 14.578125 -37.84375 C 14.796875 -37.90625 15.078125 -37.984375 15.421875 -38.078125 C 15.773438 -38.171875 16.238281 -38.410156 16.8125 -38.796875 C 17.039062 -39.242188 17.503906 -39.441406 18.203125 -39.390625 C 18.898438 -39.347656 19.59375 -39.125 20.28125 -38.71875 C 20.96875 -38.320312 21.523438 -37.773438 21.953125 -37.078125 C 22.378906 -36.378906 22.484375 -35.65625 22.265625 -34.90625 C 22.046875 -34.15625 21.863281 -33.597656 21.71875 -33.234375 C 21.570312 -32.867188 21.425781 -32.523438 21.28125 -32.203125 C 21.144531 -31.890625 20.972656 -31.53125 20.765625 -31.125 C 20.554688 -30.726562 20.289062 -30.195312 19.96875 -29.53125 L 18.390625 -26.234375 C 18.234375 -25.816406 18.097656 -25.578125 17.984375 -25.515625 C 17.878906 -25.453125 17.773438 -25.34375 17.671875 -25.1875 C 17.960938 -25.25 18.203125 -25.296875 18.390625 -25.328125 C 18.585938 -25.359375 18.78125 -25.390625 18.96875 -25.421875 C 19.414062 -25.484375 19.925781 -25.546875 20.5 -25.609375 C 20.851562 -25.546875 21.15625 -25.515625 21.40625 -25.515625 L 22.078125 -25.515625 C 22.453125 -25.515625 22.910156 -25.410156 23.453125 -25.203125 C 23.992188 -24.992188 24.34375 -24.632812 24.5 -24.125 C 24.664062 -23.613281 24.6875 -23.09375 24.5625 -22.5625 C 24.4375 -22.039062 24.179688 -21.554688 23.796875 -21.109375 C 23.410156 -20.671875 22.914062 -20.4375 22.3125 -20.40625 C 19.539062 -19.632812 17.566406 -19.21875 16.390625 -19.15625 L 16.109375 -18.828125 L 16.109375 -18.78125 C 15.785156 -18.007812 15.441406 -17.039062 15.078125 -15.875 C 14.710938 -14.71875 14.3125 -13.460938 13.875 -12.109375 C 13.445312 -10.753906 13.007812 -9.351562 12.5625 -7.90625 C 12.113281 -6.457031 11.65625 -5.066406 11.1875 -3.734375 C 9.65625 0.765625 8.539062 3.203125 7.84375 3.578125 C 7.582031 3.710938 7.316406 3.800781 7.046875 3.84375 C 6.773438 3.894531 6.625 3.9375 6.59375 3.96875 C 5.476562 3.90625 4.550781 3.679688 3.8125 3.296875 C 3.082031 2.910156 2.585938 2.539062 2.328125 2.1875 C 2.078125 1.84375 2.019531 1.445312 2.15625 1 C 2.757812 -4.539062 3.96875 -10.609375 5.78125 -17.203125 C 5.144531 -17.203125 4.695312 -17.140625 4.4375 -17.015625 C 3.96875 -16.753906 3.394531 -16.609375 2.71875 -16.578125 L 2.671875 -16.578125 C 2.160156 -16.609375 1.695312 -16.847656 1.28125 -17.296875 C 0.875 -17.742188 0.617188 -18.253906 0.515625 -18.828125 C 0.421875 -19.398438 0.519531 -19.988281 0.8125 -20.59375 C 1.101562 -21.195312 1.675781 -21.675781 2.53125 -22.03125 C 3.550781 -22.3125 4.300781 -22.550781 4.78125 -22.75 C 5.695312 -23.125 6.46875 -23.390625 7.09375 -23.546875 C 7.71875 -23.710938 8.066406 -23.816406 8.140625 -23.859375 C 8.222656 -23.910156 8.28125 -23.953125 8.3125 -23.984375 C 8.40625 -24.046875 8.644531 -24.078125 9.03125 -24.078125 C 9.21875 -25.003906 9.40625 -25.941406 9.59375 -26.890625 C 9.789062 -27.847656 10.035156 -28.820312 10.328125 -29.8125 C 10.960938 -32.101562 11.835938 -34.078125 12.953125 -35.734375 Z M 12.953125 -35.734375 "/></g></g></g><g fill="rgb(96.859741%, 40.388489%, 3.919983%)" fill-opacity="0.4"><g transform="translate(164.92943, 76.124488)"><g><path d="M 4.96875 -19.78125 C 5.414062 -20.925781 6.046875 -21.789062 6.859375 -22.375 C 7.671875 -22.96875 8.453125 -23.335938 9.203125 -23.484375 C 9.953125 -23.628906 10.570312 -23.539062 11.0625 -23.21875 C 11.550781 -22.90625 11.71875 -22.410156 11.5625 -21.734375 C 12.164062 -22.335938 13.039062 -22.894531 14.1875 -23.40625 C 15.332031 -23.914062 16.238281 -24.265625 16.90625 -24.453125 C 17.582031 -24.648438 18.160156 -24.75 18.640625 -24.75 C 19.691406 -24.6875 19.992188 -24.113281 19.546875 -23.03125 C 20.085938 -22.9375 20.484375 -22.585938 20.734375 -21.984375 C 20.992188 -21.378906 21.023438 -20.707031 20.828125 -19.96875 C 20.640625 -19.238281 20.210938 -18.519531 19.546875 -17.8125 C 18.878906 -17.113281 17.976562 -16.632812 16.84375 -16.375 C 15.707031 -16.125 14.765625 -15.546875 14.015625 -14.640625 C 13.273438 -13.734375 12.617188 -12.613281 12.046875 -11.28125 C 11.085938 -9.019531 10.222656 -5.816406 9.453125 -1.671875 C 9.203125 -0.171875 8.171875 1.085938 6.359375 2.109375 C 4.640625 3.085938 3.0625 3.375 1.625 2.96875 C 0 2.519531 -0.71875 1.320312 -0.53125 -0.625 C -0.46875 -1.988281 -0.0546875 -3.8125 0.703125 -6.09375 C 1.472656 -8.375 2.066406 -10.09375 2.484375 -11.25 C 2.898438 -12.414062 3.1875 -13.300781 3.34375 -13.90625 Z M 4.96875 -19.78125 "/></g></g></g><g fill="rgb(96.859741%, 40.388489%, 3.919983%)" fill-opacity="0.4"><g transform="translate(183.901079, 76.124488)"><g><path d="M 21.890625 -20.5 L 22.078125 -20.453125 C 22.140625 -20.453125 22.171875 -20.4375 22.171875 -20.40625 C 22.992188 -20.71875 23.675781 -20.476562 24.21875 -19.6875 C 24.570312 -19.144531 24.84375 -18.316406 25.03125 -17.203125 C 25.101562 -15.671875 24.945312 -13.550781 24.5625 -10.84375 C 23.820312 -5.363281 23.421875 -2.097656 23.359375 -1.046875 C 23.421875 0.0664062 22.738281 0.832031 21.3125 1.25 C 20.070312 1.625 18.828125 1.601562 17.578125 1.1875 C 16.273438 0.75 15.734375 0.0664062 15.953125 -0.859375 C 15.703125 -0.378906 15.445312 -0.0351562 15.1875 0.171875 C 14.9375 0.378906 14.4375 0.664062 13.6875 1.03125 C 12.9375 1.394531 11.875 1.695312 10.5 1.9375 C 9.132812 2.175781 7.765625 2.238281 6.390625 2.125 C 5.023438 2.007812 3.773438 1.671875 2.640625 1.109375 C 1.515625 0.554688 0.757812 -0.304688 0.375 -1.484375 C -0.351562 -3.773438 -0.253906 -6.6875 0.671875 -10.21875 C 1.304688 -12.550781 2.453125 -14.609375 4.109375 -16.390625 C 6.015625 -18.429688 8.179688 -20.117188 10.609375 -21.453125 C 12.421875 -22.441406 14.171875 -23.03125 15.859375 -23.21875 C 16.429688 -23.28125 16.929688 -23.265625 17.359375 -23.171875 C 17.796875 -23.078125 18.257812 -22.984375 18.75 -22.890625 C 19.25 -22.796875 19.71875 -22.648438 20.15625 -22.453125 C 21.3125 -21.972656 21.890625 -21.320312 21.890625 -20.5 Z M 13.046875 -7.84375 C 13.265625 -8.28125 13.445312 -8.832031 13.59375 -9.5 C 13.738281 -10.175781 13.9375 -10.910156 14.1875 -11.703125 C 11.613281 -10.648438 9.640625 -9.363281 8.265625 -7.84375 C 6.765625 -6.144531 6.859375 -4.976562 8.546875 -4.34375 C 10.015625 -3.96875 11.082031 -4.207031 11.75 -5.0625 C 12.039062 -5.445312 12.296875 -5.925781 12.515625 -6.5 C 12.742188 -7.070312 13.015625 -7.660156 13.328125 -8.265625 C 13.234375 -8.109375 13.140625 -7.96875 13.046875 -7.84375 Z M 13.046875 -7.84375 "/></g></g></g><g fill="rgb(96.859741%, 40.388489%, 3.919983%)" fill-opacity="0.4"><g transform="translate(209.515192, 76.124488)"><g><path d="M 6.3125 -20.6875 C 6.71875 -21.738281 7.703125 -22.457031 9.265625 -22.84375 C 10.734375 -23.21875 12.101562 -23.171875 13.375 -22.703125 C 14.6875 -22.191406 15.273438 -21.363281 15.140625 -20.21875 C 14.796875 -19.101562 14.359375 -17.738281 13.828125 -16.125 C 13.304688 -14.519531 12.804688 -12.875 12.328125 -11.1875 C 11.054688 -6.851562 10.320312 -3.789062 10.125 -2 C 9.644531 0.863281 8.847656 2.40625 7.734375 2.625 C 7.421875 2.6875 7.117188 2.734375 6.828125 2.765625 C 6.128906 2.796875 5.679688 2.988281 5.484375 3.34375 C 5.296875 3.695312 4.976562 3.957031 4.53125 4.125 C 4.09375 4.300781 3.609375 4.378906 3.078125 4.359375 C 2.554688 4.347656 2.023438 4.222656 1.484375 3.984375 C 0.941406 3.742188 0.476562 3.40625 0.09375 2.96875 C -0.800781 1.882812 -0.976562 0.429688 -0.4375 -1.390625 C 0.0703125 -4.859375 1.363281 -9.269531 3.4375 -14.625 C 4.425781 -17.269531 5.382812 -19.289062 6.3125 -20.6875 Z M 15.34375 -27.859375 C 13.78125 -27.535156 12.507812 -27.628906 11.53125 -28.140625 C 10.5625 -28.648438 10 -29.265625 9.84375 -29.984375 C 9.6875 -30.703125 9.910156 -31.441406 10.515625 -32.203125 C 11.210938 -33.160156 12.265625 -33.78125 13.671875 -34.0625 C 14.304688 -34.125 14.765625 -34.15625 15.046875 -34.15625 C 15.335938 -34.15625 15.691406 -34.09375 16.109375 -33.96875 C 17.148438 -33.875 17.832031 -33.414062 18.15625 -32.59375 C 18.601562 -31.882812 18.644531 -31.082031 18.28125 -30.1875 C 17.914062 -29.300781 16.9375 -28.523438 15.34375 -27.859375 Z M 15.34375 -27.859375 "/></g></g></g><g fill="rgb(96.859741%, 40.388489%, 3.919983%)" fill-opacity="0.4"><g transform="translate(224.854985, 76.124488)"><g><path d="M 7.984375 -20.6875 C 10.117188 -21.550781 11.550781 -21.566406 12.28125 -20.734375 C 12.664062 -20.285156 12.859375 -19.664062 12.859375 -18.875 L 12.859375 -18.640625 C 14.035156 -20.003906 16.085938 -21.148438 19.015625 -22.078125 C 22.109375 -23.035156 24.65625 -23.304688 26.65625 -22.890625 C 29.269531 -22.347656 30.738281 -20.644531 31.0625 -17.78125 C 31.3125 -15.351562 30.753906 -12.273438 29.390625 -8.546875 C 28.941406 -7.597656 28.597656 -6.828125 28.359375 -6.234375 C 28.117188 -5.640625 27.90625 -5.109375 27.71875 -4.640625 C 27.300781 -3.742188 26.644531 -2.675781 25.75 -1.4375 C 25.238281 -0.476562 24.445312 0.253906 23.375 0.765625 C 22.3125 1.273438 21.265625 1.566406 20.234375 1.640625 C 19.203125 1.722656 18.347656 1.566406 17.671875 1.171875 C 17.003906 0.773438 16.816406 0.144531 17.109375 -0.71875 C 17.835938 -2.6875 18.441406 -4.484375 18.921875 -6.109375 C 19.398438 -7.734375 19.894531 -9.117188 20.40625 -10.265625 C 20.882812 -11.890625 20.945312 -12.910156 20.59375 -13.328125 C 20.300781 -13.648438 19.804688 -13.601562 19.109375 -13.1875 C 18.503906 -12.800781 18.078125 -12.351562 17.828125 -11.84375 C 17.253906 -11.4375 16.171875 -9.78125 14.578125 -6.875 C 14.128906 -6.082031 13.6875 -5.296875 13.25 -4.515625 C 12.820312 -3.734375 12.425781 -3.007812 12.0625 -2.34375 C 11.695312 -1.675781 11.378906 -1.117188 11.109375 -0.671875 C 10.835938 -0.222656 10.597656 0.0703125 10.390625 0.21875 C 10.179688 0.363281 10.003906 0.457031 9.859375 0.5 C 9.722656 0.550781 9.601562 0.609375 9.5 0.671875 C 9.40625 0.734375 9.328125 0.941406 9.265625 1.296875 C 9.140625 2.023438 8.375 2.566406 6.96875 2.921875 C 4.707031 3.492188 2.671875 3.394531 0.859375 2.625 C 0.253906 2.375 -0.222656 2.023438 -0.578125 1.578125 C -1.304688 0.109375 -0.046875 -4.875 3.203125 -13.375 C 4.347656 -16.375 5.097656 -18.160156 5.453125 -18.734375 C 6.242188 -19.941406 6.757812 -20.625 7 -20.78125 C 7.238281 -20.945312 7.566406 -20.914062 7.984375 -20.6875 Z M 7.984375 -20.6875 "/></g></g></g><g fill="rgb(1.959229%, 58.81958%, 41.178894%)" fill-opacity="1"><g transform="translate(53.957513, 74.012553)"><g><path d="M 12.953125 -35.734375 L 13 -35.9375 L 13.421875 -36.359375 C 13.773438 -37.191406 14.160156 -37.6875 14.578125 -37.84375 C 14.796875 -37.90625 15.078125 -37.984375 15.421875 -38.078125 C 15.773438 -38.171875 16.238281 -38.410156 16.8125 -38.796875 C 17.039062 -39.242188 17.503906 -39.441406 18.203125 -39.390625 C 18.898438 -39.347656 19.59375 -39.125 20.28125 -38.71875 C 20.96875 -38.320312 21.523438 -37.773438 21.953125 -37.078125 C 22.378906 -36.378906 22.484375 -35.65625 22.265625 -34.90625 C 22.046875 -34.15625 21.863281 -33.597656 21.71875 -33.234375 C 21.570312 -32.867188 21.425781 -32.523438 21.28125 -32.203125 C 21.144531 -31.890625 20.972656 -31.53125 20.765625 -31.125 C 20.554688 -30.726562 20.289062 -30.195312 19.96875 -29.53125 L 18.390625 -26.234375 C 18.234375 -25.816406 18.097656 -25.578125 17.984375 -25.515625 C 17.878906 -25.453125 17.773438 -25.34375 17.671875 -25.1875 C 17.960938 -25.25 18.203125 -25.296875 18.390625 -25.328125 C 18.585938 -25.359375 18.78125 -25.390625 18.96875 -25.421875 C 19.414062 -25.484375 19.925781 -25.546875 20.5 -25.609375 C 20.851562 -25.546875 21.15625 -25.515625 21.40625 -25.515625 L 22.078125 -25.515625 C 22.453125 -25.515625 22.910156 -25.410156 23.453125 -25.203125 C 23.992188 -24.992188 24.34375 -24.632812 24.5 -24.125 C 24.664062 -23.613281 24.6875 -23.09375 24.5625 -22.5625 C 24.4375 -22.039062 24.179688 -21.554688 23.796875 -21.109375 C 23.410156 -20.671875 22.914062 -20.4375 22.3125 -20.40625 C 19.539062 -19.632812 17.566406 -19.21875 16.390625 -19.15625 L 16.109375 -18.828125 L 16.109375 -18.78125 C 15.785156 -18.007812 15.441406 -17.039062 15.078125 -15.875 C 14.710938 -14.71875 14.3125 -13.460938 13.875 -12.109375 C 13.445312 -10.753906 13.007812 -9.351562 12.5625 -7.90625 C 12.113281 -6.457031 11.65625 -5.066406 11.1875 -3.734375 C 9.65625 0.765625 8.539062 3.203125 7.84375 3.578125 C 7.582031 3.710938 7.316406 3.800781 7.046875 3.84375 C 6.773438 3.894531 6.625 3.9375 6.59375 3.96875 C 5.476562 3.90625 4.550781 3.679688 3.8125 3.296875 C 3.082031 2.910156 2.585938 2.539062 2.328125 2.1875 C 2.078125 1.84375 2.019531 1.445312 2.15625 1 C 2.757812 -4.539062 3.96875 -10.609375 5.78125 -17.203125 C 5.144531 -17.203125 4.695312 -17.140625 4.4375 -17.015625 C 3.96875 -16.753906 3.394531 -16.609375 2.71875 -16.578125 L 2.671875 -16.578125 C 2.160156 -16.609375 1.695312 -16.847656 1.28125 -17.296875 C 0.875 -17.742188 0.617188 -18.253906 0.515625 -18.828125 C 0.421875 -19.398438 0.519531 -19.988281 0.8125 -20.59375 C 1.101562 -21.195312 1.675781 -21.675781 2.53125 -22.03125 C 3.550781 -22.3125 4.300781 -22.550781 4.78125 -22.75 C 5.695312 -23.125 6.46875 -23.390625 7.09375 -23.546875 C 7.71875 -23.710938 8.066406 -23.816406 8.140625 -23.859375 C 8.222656 -23.910156 8.28125 -23.953125 8.3125 -23.984375 C 8.40625 -24.046875 8.644531 -24.078125 9.03125 -24.078125 C 9.21875 -25.003906 9.40625 -25.941406 9.59375 -26.890625 C 9.789062 -27.847656 10.035156 -28.820312 10.328125 -29.8125 C 10.960938 -32.101562 11.835938 -34.078125 12.953125 -35.734375 Z M 12.953125 -35.734375 "/></g></g></g><g fill="rgb(1.959229%, 58.81958%, 41.178894%)" fill-opacity="1"><g transform="translate(74.79287, 74.012553)"><g><path d="M 6.6875 -20.40625 C 7.351562 -20.882812 8.179688 -20.992188 9.171875 -20.734375 C 9.359375 -20.703125 9.550781 -20.6875 9.75 -20.6875 C 10.445312 -22.125 11.65625 -22.875 13.375 -22.9375 C 13.820312 -22.96875 14.441406 -23.046875 15.234375 -23.171875 C 16.035156 -23.296875 17 -23.265625 18.125 -23.078125 C 19.257812 -22.890625 20.257812 -22.554688 21.125 -22.078125 C 23 -21.054688 24.128906 -19.585938 24.515625 -17.671875 C 25.273438 -14.867188 25.160156 -11.8125 24.171875 -8.5 C 23.117188 -4.84375 21.335938 -1.914062 18.828125 0.28125 C 17.679688 1.300781 16.46875 1.945312 15.1875 2.21875 C 13.914062 2.488281 12.769531 2.640625 11.75 2.671875 C 10.726562 2.703125 9.796875 2.707031 8.953125 2.6875 C 8.109375 2.675781 7.289062 2.59375 6.5 2.4375 C 4.78125 2.082031 3.363281 1.269531 2.25 0 C 0.9375 -1.4375 0.378906 -3.664062 0.578125 -6.6875 C 0.703125 -9.363281 1.375 -12.0625 2.59375 -14.78125 C 3.820312 -17.507812 5.1875 -19.382812 6.6875 -20.40625 Z M 15.09375 -10.796875 C 14.300781 -10.546875 13.554688 -10.4375 12.859375 -10.46875 C 12.503906 -10.113281 12.191406 -9.738281 11.921875 -9.34375 C 11.648438 -8.945312 11.289062 -8.578125 10.84375 -8.234375 C 10.394531 -7.898438 10.171875 -7.769531 10.171875 -7.84375 C 9.628906 -7.070312 9.179688 -6.28125 8.828125 -5.46875 C 8.484375 -4.65625 8.488281 -3.835938 8.84375 -3.015625 C 10.113281 -2.878906 11.050781 -2.90625 11.65625 -3.09375 C 12.257812 -3.289062 12.820312 -3.660156 13.34375 -4.203125 C 13.875 -4.742188 14.285156 -5.378906 14.578125 -6.109375 C 15.148438 -7.484375 15.320312 -9.046875 15.09375 -10.796875 Z M 15.09375 -10.796875 "/></g></g></g><g fill="rgb(1.959229%, 58.81958%, 41.178894%)" fill-opacity="1"><g transform="translate(99.833538, 74.012553)"><g><path d="M 1.734375 -14.609375 C 1.753906 -15.921875 1.648438 -16.988281 1.421875 -17.8125 C 1.203125 -18.644531 1.210938 -19.335938 1.453125 -19.890625 C 1.691406 -20.453125 2.070312 -20.84375 2.59375 -21.0625 C 3.125 -21.289062 3.75 -21.363281 4.46875 -21.28125 C 5.1875 -21.207031 5.894531 -20.992188 6.59375 -20.640625 C 8.28125 -19.878906 9.457031 -18.796875 10.125 -17.390625 C 10.289062 -16.691406 10.238281 -15.820312 9.96875 -14.78125 C 9.695312 -13.75 9.382812 -12.679688 9.03125 -11.578125 C 8.675781 -10.484375 8.335938 -9.414062 8.015625 -8.375 C 7.703125 -7.34375 7.578125 -6.476562 7.640625 -5.78125 C 8.472656 -6.289062 9.195312 -7.054688 9.8125 -8.078125 C 10.4375 -9.097656 11.007812 -10.1875 11.53125 -11.34375 C 12.0625 -12.507812 12.554688 -13.664062 13.015625 -14.8125 C 13.484375 -15.957031 13.929688 -16.863281 14.359375 -17.53125 C 14.785156 -18.207031 15.125 -18.742188 15.375 -19.140625 C 15.632812 -19.535156 15.894531 -19.894531 16.15625 -20.21875 C 16.5625 -20.757812 17.101562 -21.28125 17.78125 -21.78125 C 17.96875 -21.945312 18.546875 -21.925781 19.515625 -21.71875 C 20.484375 -21.507812 21.195312 -21.363281 21.65625 -21.28125 C 22.125 -21.207031 22.4375 -21.234375 22.59375 -21.359375 L 23.265625 -21.84375 C 24.160156 -22.28125 25.210938 -22.257812 26.421875 -21.78125 C 27.597656 -21.28125 28.21875 -20.503906 28.28125 -19.453125 C 28.25 -19.421875 28.234375 -19.351562 28.234375 -19.25 L 28.375 -19.203125 L 28.046875 -18.921875 C 27.828125 -18.503906 27.660156 -18.222656 27.546875 -18.078125 C 27.429688 -17.941406 27.203125 -17.726562 26.859375 -17.4375 C 24.691406 -15.113281 22.207031 -10.796875 19.40625 -4.484375 C 18.695312 -2.929688 18.054688 -1.53125 17.484375 -0.28125 C 18.347656 0.257812 19 0.957031 19.4375 1.8125 C 19.882812 2.675781 19.890625 3.617188 19.453125 4.640625 C 16.804688 6.734375 15.320312 8.707031 15 10.5625 C 14.84375 11.707031 14.644531 12.519531 14.40625 13 C 14.164062 13.476562 13.789062 13.9375 13.28125 14.375 C 11.5625 15.65625 9.539062 15.335938 7.21875 13.421875 C 5.5625 11.765625 5.476562 9.695312 6.96875 7.21875 C 7.351562 6.550781 7.722656 5.847656 8.078125 5.109375 C 8.585938 4.023438 9.398438 2.414062 10.515625 0.28125 C 7.773438 1.875 5.257812 1.84375 2.96875 0.1875 C 1.34375 -1.050781 0.769531 -3.867188 1.25 -8.265625 C 1.5625 -11.191406 1.722656 -13.304688 1.734375 -14.609375 Z M 1.734375 -14.609375 "/></g></g></g><g fill="rgb(1.959229%, 58.81958%, 41.178894%)" fill-opacity="1"><g transform="translate(127.072426, 74.012553)"><g/></g></g><g fill="rgb(1.959229%, 58.81958%, 41.178894%)" fill-opacity="1"><g transform="translate(141.982139, 74.012553)"><g><path d="M 12.953125 -35.734375 L 13 -35.9375 L 13.421875 -36.359375 C 13.773438 -37.191406 14.160156 -37.6875 14.578125 -37.84375 C 14.796875 -37.90625 15.078125 -37.984375 15.421875 -38.078125 C 15.773438 -38.171875 16.238281 -38.410156 16.8125 -38.796875 C 17.039062 -39.242188 17.503906 -39.441406 18.203125 -39.390625 C 18.898438 -39.347656 19.59375 -39.125 20.28125 -38.71875 C 20.96875 -38.320312 21.523438 -37.773438 21.953125 -37.078125 C 22.378906 -36.378906 22.484375 -35.65625 22.265625 -34.90625 C 22.046875 -34.15625 21.863281 -33.597656 21.71875 -33.234375 C 21.570312 -32.867188 21.425781 -32.523438 21.28125 -32.203125 C 21.144531 -31.890625 20.972656 -31.53125 20.765625 -31.125 C 20.554688 -30.726562 20.289062 -30.195312 19.96875 -29.53125 L 18.390625 -26.234375 C 18.234375 -25.816406 18.097656 -25.578125 17.984375 -25.515625 C 17.878906 -25.453125 17.773438 -25.34375 17.671875 -25.1875 C 17.960938 -25.25 18.203125 -25.296875 18.390625 -25.328125 C 18.585938 -25.359375 18.78125 -25.390625 18.96875 -25.421875 C 19.414062 -25.484375 19.925781 -25.546875 20.5 -25.609375 C 20.851562 -25.546875 21.15625 -25.515625 21.40625 -25.515625 L 22.078125 -25.515625 C 22.453125 -25.515625 22.910156 -25.410156 23.453125 -25.203125 C 23.992188 -24.992188 24.34375 -24.632812 24.5 -24.125 C 24.664062 -23.613281 24.6875 -23.09375 24.5625 -22.5625 C 24.4375 -22.039062 24.179688 -21.554688 23.796875 -21.109375 C 23.410156 -20.671875 22.914062 -20.4375 22.3125 -20.40625 C 19.539062 -19.632812 17.566406 -19.21875 16.390625 -19.15625 L 16.109375 -18.828125 L 16.109375 -18.78125 C 15.785156 -18.007812 15.441406 -17.039062 15.078125 -15.875 C 14.710938 -14.71875 14.3125 -13.460938 13.875 -12.109375 C 13.445312 -10.753906 13.007812 -9.351562 12.5625 -7.90625 C 12.113281 -6.457031 11.65625 -5.066406 11.1875 -3.734375 C 9.65625 0.765625 8.539062 3.203125 7.84375 3.578125 C 7.582031 3.710938 7.316406 3.800781 7.046875 3.84375 C 6.773438 3.894531 6.625 3.9375 6.59375 3.96875 C 5.476562 3.90625 4.550781 3.679688 3.8125 3.296875 C 3.082031 2.910156 2.585938 2.539062 2.328125 2.1875 C 2.078125 1.84375 2.019531 1.445312 2.15625 1 C 2.757812 -4.539062 3.96875 -10.609375 5.78125 -17.203125 C 5.144531 -17.203125 4.695312 -17.140625 4.4375 -17.015625 C 3.96875 -16.753906 3.394531 -16.609375 2.71875 -16.578125 L 2.671875 -16.578125 C 2.160156 -16.609375 1.695312 -16.847656 1.28125 -17.296875 C 0.875 -17.742188 0.617188 -18.253906 0.515625 -18.828125 C 0.421875 -19.398438 0.519531 -19.988281 0.8125 -20.59375 C 1.101562 -21.195312 1.675781 -21.675781 2.53125 -22.03125 C 3.550781 -22.3125 4.300781 -22.550781 4.78125 -22.75 C 5.695312 -23.125 6.46875 -23.390625 7.09375 -23.546875 C 7.71875 -23.710938 8.066406 -23.816406 8.140625 -23.859375 C 8.222656 -23.910156 8.28125 -23.953125 8.3125 -23.984375 C 8.40625 -24.046875 8.644531 -24.078125 9.03125 -24.078125 C 9.21875 -25.003906 9.40625 -25.941406 9.59375 -26.890625 C 9.789062 -27.847656 10.035156 -28.820312 10.328125 -29.8125 C 10.960938 -32.101562 11.835938 -34.078125 12.953125 -35.734375 Z M 12.953125 -35.734375 "/></g></g></g><g fill="rgb(1.959229%, 58.81958%, 41.178894%)" fill-opacity="1"><g transform="translate(162.817495, 74.012553)"><g><path d="M 4.96875 -19.78125 C 5.414062 -20.925781 6.046875 -21.789062 6.859375 -22.375 C 7.671875 -22.96875 8.453125 -23.335938 9.203125 -23.484375 C 9.953125 -23.628906 10.570312 -23.539062 11.0625 -23.21875 C 11.550781 -22.90625 11.71875 -22.410156 11.5625 -21.734375 C 12.164062 -22.335938 13.039062 -22.894531 14.1875 -23.40625 C 15.332031 -23.914062 16.238281 -24.265625 16.90625 -24.453125 C 17.582031 -24.648438 18.160156 -24.75 18.640625 -24.75 C 19.691406 -24.6875 19.992188 -24.113281 19.546875 -23.03125 C 20.085938 -22.9375 20.484375 -22.585938 20.734375 -21.984375 C 20.992188 -21.378906 21.023438 -20.707031 20.828125 -19.96875 C 20.640625 -19.238281 20.210938 -18.519531 19.546875 -17.8125 C 18.878906 -17.113281 17.976562 -16.632812 16.84375 -16.375 C 15.707031 -16.125 14.765625 -15.546875 14.015625 -14.640625 C 13.273438 -13.734375 12.617188 -12.613281 12.046875 -11.28125 C 11.085938 -9.019531 10.222656 -5.816406 9.453125 -1.671875 C 9.203125 -0.171875 8.171875 1.085938 6.359375 2.109375 C 4.640625 3.085938 3.0625 3.375 1.625 2.96875 C 0 2.519531 -0.71875 1.320312 -0.53125 -0.625 C -0.46875 -1.988281 -0.0546875 -3.8125 0.703125 -6.09375 C 1.472656 -8.375 2.066406 -10.09375 2.484375 -11.25 C 2.898438 -12.414062 3.1875 -13.300781 3.34375 -13.90625 Z M 4.96875 -19.78125 "/></g></g></g><g fill="rgb(1.959229%, 58.81958%, 41.178894%)" fill-opacity="1"><g transform="translate(181.789144, 74.012553)"><g><path d="M 21.890625 -20.5 L 22.078125 -20.453125 C 22.140625 -20.453125 22.171875 -20.4375 22.171875 -20.40625 C 22.992188 -20.71875 23.675781 -20.476562 24.21875 -19.6875 C 24.570312 -19.144531 24.84375 -18.316406 25.03125 -17.203125 C 25.101562 -15.671875 24.945312 -13.550781 24.5625 -10.84375 C 23.820312 -5.363281 23.421875 -2.097656 23.359375 -1.046875 C 23.421875 0.0664062 22.738281 0.832031 21.3125 1.25 C 20.070312 1.625 18.828125 1.601562 17.578125 1.1875 C 16.273438 0.75 15.734375 0.0664062 15.953125 -0.859375 C 15.703125 -0.378906 15.445312 -0.0351562 15.1875 0.171875 C 14.9375 0.378906 14.4375 0.664062 13.6875 1.03125 C 12.9375 1.394531 11.875 1.695312 10.5 1.9375 C 9.132812 2.175781 7.765625 2.238281 6.390625 2.125 C 5.023438 2.007812 3.773438 1.671875 2.640625 1.109375 C 1.515625 0.554688 0.757812 -0.304688 0.375 -1.484375 C -0.351562 -3.773438 -0.253906 -6.6875 0.671875 -10.21875 C 1.304688 -12.550781 2.453125 -14.609375 4.109375 -16.390625 C 6.015625 -18.429688 8.179688 -20.117188 10.609375 -21.453125 C 12.421875 -22.441406 14.171875 -23.03125 15.859375 -23.21875 C 16.429688 -23.28125 16.929688 -23.265625 17.359375 -23.171875 C 17.796875 -23.078125 18.257812 -22.984375 18.75 -22.890625 C 19.25 -22.796875 19.71875 -22.648438 20.15625 -22.453125 C 21.3125 -21.972656 21.890625 -21.320312 21.890625 -20.5 Z M 13.046875 -7.84375 C 13.265625 -8.28125 13.445312 -8.832031 13.59375 -9.5 C 13.738281 -10.175781 13.9375 -10.910156 14.1875 -11.703125 C 11.613281 -10.648438 9.640625 -9.363281 8.265625 -7.84375 C 6.765625 -6.144531 6.859375 -4.976562 8.546875 -4.34375 C 10.015625 -3.96875 11.082031 -4.207031 11.75 -5.0625 C 12.039062 -5.445312 12.296875 -5.925781 12.515625 -6.5 C 12.742188 -7.070312 13.015625 -7.660156 13.328125 -8.265625 C 13.234375 -8.109375 13.140625 -7.96875 13.046875 -7.84375 Z M 13.046875 -7.84375 "/></g></g></g><g fill="rgb(1.959229%, 58.81958%, 41.178894%)" fill-opacity="1"><g transform="translate(207.403257, 74.012553)"><g><path d="M 6.3125 -20.6875 C 6.71875 -21.738281 7.703125 -22.457031 9.265625 -22.84375 C 10.734375 -23.21875 12.101562 -23.171875 13.375 -22.703125 C 14.6875 -22.191406 15.273438 -21.363281 15.140625 -20.21875 C 14.796875 -19.101562 14.359375 -17.738281 13.828125 -16.125 C 13.304688 -14.519531 12.804688 -12.875 12.328125 -11.1875 C 11.054688 -6.851562 10.320312 -3.789062 10.125 -2 C 9.644531 0.863281 8.847656 2.40625 7.734375 2.625 C 7.421875 2.6875 7.117188 2.734375 6.828125 2.765625 C 6.128906 2.796875 5.679688 2.988281 5.484375 3.34375 C 5.296875 3.695312 4.976562 3.957031 4.53125 4.125 C 4.09375 4.300781 3.609375 4.378906 3.078125 4.359375 C 2.554688 4.347656 2.023438 4.222656 1.484375 3.984375 C 0.941406 3.742188 0.476562 3.40625 0.09375 2.96875 C -0.800781 1.882812 -0.976562 0.429688 -0.4375 -1.390625 C 0.0703125 -4.859375 1.363281 -9.269531 3.4375 -14.625 C 4.425781 -17.269531 5.382812 -19.289062 6.3125 -20.6875 Z M 15.34375 -27.859375 C 13.78125 -27.535156 12.507812 -27.628906 11.53125 -28.140625 C 10.5625 -28.648438 10 -29.265625 9.84375 -29.984375 C 9.6875 -30.703125 9.910156 -31.441406 10.515625 -32.203125 C 11.210938 -33.160156 12.265625 -33.78125 13.671875 -34.0625 C 14.304688 -34.125 14.765625 -34.15625 15.046875 -34.15625 C 15.335938 -34.15625 15.691406 -34.09375 16.109375 -33.96875 C 17.148438 -33.875 17.832031 -33.414062 18.15625 -32.59375 C 18.601562 -31.882812 18.644531 -31.082031 18.28125 -30.1875 C 17.914062 -29.300781 16.9375 -28.523438 15.34375 -27.859375 Z M 15.34375 -27.859375 "/></g></g></g><g fill="rgb(1.959229%, 58.81958%, 41.178894%)" fill-opacity="1"><g transform="translate(222.74305, 74.012553)"><g><path d="M 7.984375 -20.6875 C 10.117188 -21.550781 11.550781 -21.566406 12.28125 -20.734375 C 12.664062 -20.285156 12.859375 -19.664062 12.859375 -18.875 L 12.859375 -18.640625 C 14.035156 -20.003906 16.085938 -21.148438 19.015625 -22.078125 C 22.109375 -23.035156 24.65625 -23.304688 26.65625 -22.890625 C 29.269531 -22.347656 30.738281 -20.644531 31.0625 -17.78125 C 31.3125 -15.351562 30.753906 -12.273438 29.390625 -8.546875 C 28.941406 -7.597656 28.597656 -6.828125 28.359375 -6.234375 C 28.117188 -5.640625 27.90625 -5.109375 27.71875 -4.640625 C 27.300781 -3.742188 26.644531 -2.675781 25.75 -1.4375 C 25.238281 -0.476562 24.445312 0.253906 23.375 0.765625 C 22.3125 1.273438 21.265625 1.566406 20.234375 1.640625 C 19.203125 1.722656 18.347656 1.566406 17.671875 1.171875 C 17.003906 0.773438 16.816406 0.144531 17.109375 -0.71875 C 17.835938 -2.6875 18.441406 -4.484375 18.921875 -6.109375 C 19.398438 -7.734375 19.894531 -9.117188 20.40625 -10.265625 C 20.882812 -11.890625 20.945312 -12.910156 20.59375 -13.328125 C 20.300781 -13.648438 19.804688 -13.601562 19.109375 -13.1875 C 18.503906 -12.800781 18.078125 -12.351562 17.828125 -11.84375 C 17.253906 -11.4375 16.171875 -9.78125 14.578125 -6.875 C 14.128906 -6.082031 13.6875 -5.296875 13.25 -4.515625 C 12.820312 -3.734375 12.425781 -3.007812 12.0625 -2.34375 C 11.695312 -1.675781 11.378906 -1.117188 11.109375 -0.671875 C 10.835938 -0.222656 10.597656 0.0703125 10.390625 0.21875 C 10.179688 0.363281 10.003906 0.457031 9.859375 0.5 C 9.722656 0.550781 9.601562 0.609375 9.5 0.671875 C 9.40625 0.734375 9.328125 0.941406 9.265625 1.296875 C 9.140625 2.023438 8.375 2.566406 6.96875 2.921875 C 4.707031 3.492188 2.671875 3.394531 0.859375 2.625 C 0.253906 2.375 -0.222656 2.023438 -0.578125 1.578125 C -1.304688 0.109375 -0.046875 -4.875 3.203125 -13.375 C 4.347656 -16.375 5.097656 -18.160156 5.453125 -18.734375 C 6.242188 -19.941406 6.757812 -20.625 7 -20.78125 C 7.238281 -20.945312 7.566406 -20.914062 7.984375 -20.6875 Z M 7.984375 -20.6875 "/></g></g></g></svg>